<svg id="svg" version="1.1" xmlns="http://www.w3.org/2000/svg" xmlns:xlink="http://www.w3.org/1999/xlink" width="400" height="413.9130434782609" viewBox="0, 0, 400,413.9130434782609"><g id="svgg"><path id="path0" d="M169.922 39.300 C 169.179 39.889,93.852 266.237,94.207 266.812 C 94.622 267.484,125.401 267.322,125.962 266.645 C 126.403 266.114,128.899 258.588,135.991 236.400 C 137.784 230.790,139.885 224.264,140.659 221.898 L 142.067 217.597 189.706 217.698 L 237.345 217.800 238.634 221.800 C 239.343 224.000,241.486 230.660,243.395 236.600 C 245.305 242.540,247.855 250.460,249.064 254.200 C 250.272 257.940,251.631 262.170,252.083 263.600 C 252.536 265.030,253.085 266.425,253.302 266.700 C 253.809 267.340,286.207 267.436,286.601 266.798 C 286.866 266.370,285.975 263.496,279.415 243.600 C 277.130 236.670,271.003 218.040,265.800 202.200 C 260.598 186.360,253.942 166.110,251.011 157.200 C 248.080 148.290,243.761 135.150,241.414 128.000 C 239.067 120.850,235.285 109.330,233.010 102.400 C 227.859 86.706,213.697 43.490,213.087 41.600 C 212.112 38.582,213.828 38.800,191.014 38.800 C 175.248 38.800,170.408 38.915,169.922 39.300 M190.181 69.169 C 190.306 69.372,191.653 73.467,193.174 78.269 C 220.852 165.679,228.000 188.421,228.000 189.066 C 228.000 189.507,221.378 189.600,189.800 189.600 C 153.684 189.600,151.600 189.562,151.604 188.900 C 151.608 188.081,150.453 191.776,172.162 123.106 C 181.533 93.465,189.200 69.120,189.200 69.006 C 189.200 68.656,189.940 68.779,190.181 69.169 M92.043 356.948 C 91.720 357.338,91.619 361.275,91.694 370.648 L 91.800 383.800 190.600 383.800 L 289.400 383.800 289.506 370.648 C 289.581 361.275,289.480 357.338,289.157 356.948 C 288.476 356.128,92.724 356.128,92.043 356.948 " stroke="none" fill="#040404" fill-rule="evenodd"></path><path id="path1" d="M0.000 206.800 L 0.000 413.600 200.000 413.600 L 400.000 413.600 400.000 206.800 L 400.000 0.000 200.000 0.000 L 0.000 0.000 0.000 206.800 M212.055 39.500 C 212.374 39.885,212.838 40.830,213.087 41.600 C 213.697 43.490,227.859 86.706,233.010 102.400 C 235.285 109.330,239.067 120.850,241.414 128.000 C 243.761 135.150,248.080 148.290,251.011 157.200 C 253.942 166.110,260.598 186.360,265.800 202.200 C 271.003 218.040,277.130 236.670,279.415 243.600 C 285.975 263.496,286.866 266.370,286.601 266.798 C 286.207 267.436,253.809 267.340,253.302 266.700 C 253.085 266.425,252.536 265.030,252.083 263.600 C 251.631 262.170,250.272 257.940,249.064 254.200 C 247.855 250.460,245.305 242.540,243.395 236.600 C 241.486 230.660,239.343 224.000,238.634 221.800 L 237.345 217.800 189.706 217.698 L 142.067 217.597 140.659 221.898 C 139.885 224.264,137.784 230.790,135.991 236.400 C 128.899 258.588,126.403 266.114,125.962 266.645 C 125.401 267.322,94.622 267.484,94.207 266.812 C 93.852 266.237,169.179 39.889,169.922 39.300 C 171.055 38.402,211.305 38.593,212.055 39.500 M189.200 69.006 C 189.200 69.120,181.533 93.465,172.162 123.106 C 150.453 191.776,151.608 188.081,151.604 188.900 C 151.600 189.562,153.684 189.600,189.800 189.600 C 221.378 189.600,228.000 189.507,228.000 189.066 C 228.000 188.421,220.852 165.679,193.174 78.269 C 191.653 73.467,190.306 69.372,190.181 69.169 C 189.940 68.779,189.200 68.656,189.200 69.006 M289.157 356.948 C 289.480 357.338,289.581 361.275,289.506 370.648 L 289.400 383.800 190.600 383.800 L 91.800 383.800 91.694 370.648 C 91.619 361.275,91.720 357.338,92.043 356.948 C 92.724 356.128,288.476 356.128,289.157 356.948 " stroke="none" fill="#fbfbfb" fill-rule="evenodd"></path></g></svg>