<svg id="svg" version="1.1" xmlns="http://www.w3.org/2000/svg" xmlns:xlink="http://www.w3.org/1999/xlink" width="400" height="390.64748201438846" viewBox="0, 0, 400,390.64748201438846"><g id="svgg"><path id="path0" d="M0.000 195.503 L 0.000 391.007 200.000 391.007 L 400.000 391.007 400.000 195.503 L 400.000 0.000 200.000 0.000 L 0.000 0.000 0.000 195.503 M372.043 194.135 L 372.043 363.441 198.240 363.441 L 24.438 363.441 24.338 194.526 C 24.283 101.623,24.321 25.391,24.424 25.122 C 24.572 24.731,59.557 24.652,198.326 24.731 L 372.043 24.829 372.043 194.135 M37.047 36.633 C 36.396 36.803,36.368 44.540,36.461 194.066 L 36.559 351.320 198.240 351.320 L 359.922 351.320 360.022 194.330 C 360.116 47.077,360.081 37.311,359.458 36.852 C 358.811 36.375,38.867 36.158,37.047 36.633 M193.451 194.037 L 193.353 339.198 121.017 339.198 L 48.680 339.198 48.582 194.037 L 48.484 48.876 121.017 48.876 L 193.549 48.876 193.451 194.037 M347.801 194.135 L 347.801 339.198 275.464 339.198 L 203.128 339.198 203.030 194.036 L 202.932 48.874 275.366 48.973 L 347.801 49.071 347.801 194.135 M265.287 149.934 C 259.353 151.445,252.256 155.554,248.105 159.881 C 246.279 161.785,246.198 161.534,250.244 166.516 C 253.175 170.124,253.797 170.324,255.740 168.277 C 260.810 162.936,269.422 159.671,275.733 160.700 C 284.585 162.142,288.569 167.295,288.558 177.288 C 288.547 188.173,286.637 190.952,263.141 214.272 C 246.311 230.976,246.000 231.313,245.737 233.115 C 245.330 235.917,245.662 241.420,246.284 242.169 C 246.980 243.007,306.419 243.180,307.253 242.346 C 307.906 241.693,307.906 231.425,307.253 230.772 C 306.900 230.419,301.593 230.303,285.771 230.303 C 270.849 230.303,264.680 230.178,264.491 229.871 C 264.335 229.618,269.914 223.806,277.908 215.892 C 288.109 205.794,292.362 201.301,294.615 198.240 C 314.111 171.761,296.098 142.091,265.287 149.934 M118.472 150.673 C 117.506 151.178,113.636 153.179,109.873 155.121 C 106.109 157.063,101.095 159.680,98.729 160.938 C 96.364 162.196,93.735 163.581,92.889 164.017 C 90.328 165.335,90.316 165.581,92.550 170.743 C 94.919 176.215,95.215 176.485,97.468 175.222 C 98.377 174.713,100.264 173.672,101.662 172.910 C 103.060 172.149,106.730 170.146,109.817 168.461 C 112.905 166.775,115.765 165.396,116.173 165.396 C 116.897 165.396,116.913 166.202,116.816 197.947 L 116.716 230.499 105.604 230.602 C 98.205 230.672,94.319 230.851,93.972 231.139 C 93.141 231.829,93.230 242.256,94.069 242.578 C 95.195 243.010,150.528 242.848,151.345 242.410 C 152.279 241.911,152.505 232.559,151.613 231.359 C 151.181 230.778,149.981 230.689,141.349 230.600 L 131.574 230.499 131.474 190.654 C 131.403 162.001,131.252 150.661,130.938 150.282 C 130.095 149.267,120.594 149.565,118.472 150.673 " stroke="none" fill="#fafafa" fill-rule="evenodd"></path><path id="path1" d="M24.424 25.122 C 24.321 25.391,24.283 101.623,24.338 194.526 L 24.438 363.441 198.240 363.441 L 372.043 363.441 372.043 194.135 L 372.043 24.829 198.326 24.731 C 59.557 24.652,24.572 24.731,24.424 25.122 M359.458 36.852 C 360.081 37.311,360.116 47.077,360.022 194.330 L 359.922 351.320 198.240 351.320 L 36.559 351.320 36.461 194.066 C 36.368 44.540,36.396 36.803,37.047 36.633 C 38.867 36.158,358.811 36.375,359.458 36.852 M48.582 194.037 L 48.680 339.198 121.017 339.198 L 193.353 339.198 193.451 194.037 L 193.549 48.876 121.017 48.876 L 48.484 48.876 48.582 194.037 M203.030 194.036 L 203.128 339.198 275.464 339.198 L 347.801 339.198 347.801 194.135 L 347.801 49.071 275.366 48.973 L 202.932 48.874 203.030 194.036 M283.472 149.969 C 295.864 153.289,302.621 162.467,302.635 176.001 C 302.648 189.074,298.913 195.100,277.908 215.892 C 269.914 223.806,264.335 229.618,264.491 229.871 C 264.680 230.178,270.849 230.303,285.771 230.303 C 301.593 230.303,306.900 230.419,307.253 230.772 C 307.906 231.425,307.906 241.693,307.253 242.346 C 306.419 243.180,246.980 243.007,246.284 242.169 C 245.662 241.420,245.330 235.917,245.737 233.115 C 246.000 231.313,246.311 230.976,263.141 214.272 C 286.637 190.952,288.547 188.173,288.558 177.288 C 288.569 167.295,284.585 162.142,275.733 160.700 C 269.422 159.671,260.810 162.936,255.740 168.277 C 253.797 170.324,253.175 170.124,250.244 166.516 C 246.198 161.534,246.279 161.785,248.105 159.881 C 256.831 150.783,271.336 146.717,283.472 149.969 M130.938 150.282 C 131.252 150.661,131.403 162.001,131.474 190.654 L 131.574 230.499 141.349 230.600 C 149.981 230.689,151.181 230.778,151.613 231.359 C 152.505 232.559,152.279 241.911,151.345 242.410 C 150.528 242.848,95.195 243.010,94.069 242.578 C 93.230 242.256,93.141 231.829,93.972 231.139 C 94.319 230.851,98.205 230.672,105.604 230.602 L 116.716 230.499 116.816 197.947 C 116.913 166.202,116.897 165.396,116.173 165.396 C 115.765 165.396,112.905 166.775,109.817 168.461 C 106.730 170.146,103.060 172.149,101.662 172.910 C 100.264 173.672,98.377 174.713,97.468 175.222 C 95.215 176.485,94.919 176.215,92.550 170.743 C 90.316 165.581,90.328 165.335,92.889 164.017 C 93.735 163.581,96.364 162.196,98.729 160.938 C 101.095 159.680,106.109 157.063,109.873 155.121 C 113.636 153.179,117.506 151.178,118.472 150.673 C 120.594 149.565,130.095 149.267,130.938 150.282 " stroke="none" fill="#000000" fill-rule="evenodd"></path></g></svg>