<svg id="svg" version="1.1" xmlns="http://www.w3.org/2000/svg" xmlns:xlink="http://www.w3.org/1999/xlink" width="400" height="394.19237749546284" viewBox="0, 0, 400,394.19237749546284"><g id="svgg"><path id="path0" d="M0.000 197.239 L 0.000 394.477 200.000 394.477 L 400.000 394.477 400.000 197.239 L 400.000 0.000 200.000 0.000 L 0.000 0.000 0.000 197.239 M374.556 195.069 L 374.556 365.878 199.211 365.878 L 23.866 365.878 23.765 195.464 C 23.709 101.736,23.748 24.827,23.851 24.556 C 24.001 24.162,59.297 24.082,199.297 24.161 L 374.556 24.260 374.556 195.069 M36.080 36.785 C 35.977 37.056,35.938 108.462,35.994 195.464 L 36.095 353.649 199.211 353.649 L 362.327 353.649 362.427 194.970 L 362.526 36.292 199.396 36.292 C 69.256 36.292,36.229 36.392,36.080 36.785 M194.632 49.145 C 194.994 50.087,194.908 340.555,194.546 341.125 C 194.296 341.519,179.381 341.599,121.278 341.520 L 48.323 341.420 48.223 195.464 C 48.167 115.187,48.206 49.285,48.309 49.014 C 48.628 48.173,194.309 48.303,194.632 49.145 M350.198 194.970 L 350.099 341.420 277.120 341.420 L 204.142 341.420 204.041 195.464 C 203.986 115.187,204.024 49.285,204.127 49.014 C 204.276 48.622,219.276 48.521,277.306 48.521 L 350.297 48.521 350.198 194.970 M112.426 150.143 C 105.306 151.689,100.854 153.992,94.829 159.247 C 91.271 162.350,91.267 161.953,94.905 166.488 C 98.764 171.297,98.515 171.205,101.239 168.821 C 116.826 155.181,134.122 160.068,134.122 178.112 C 134.122 189.382,132.325 191.953,106.764 217.260 L 91.124 232.744 91.124 237.990 C 91.124 241.543,91.277 243.387,91.598 243.708 C 92.193 244.304,152.118 244.389,153.057 243.796 C 154.065 243.159,153.911 232.871,152.883 232.118 C 152.244 231.651,148.638 231.558,131.112 231.558 C 116.616 231.558,110.025 231.427,109.845 231.136 C 109.701 230.904,110.805 229.528,112.297 228.079 C 144.701 196.603,148.288 191.498,148.314 176.819 C 148.348 157.661,132.399 145.806,112.426 150.143 M270.739 153.505 C 267.306 155.270,262.278 157.910,259.566 159.372 C 256.854 160.833,253.016 162.841,251.037 163.834 C 246.483 166.117,246.518 165.981,249.014 171.737 C 251.135 176.627,251.969 177.522,253.375 176.415 C 254.539 175.498,272.201 166.075,272.756 166.075 C 273.317 166.075,273.368 169.250,273.276 198.915 L 273.176 231.755 261.933 231.857 C 251.925 231.947,250.636 232.031,250.197 232.623 C 249.526 233.526,249.509 243.040,250.178 243.708 C 250.679 244.210,306.963 244.437,308.252 243.942 C 309.054 243.634,309.190 233.214,308.402 232.426 C 308.060 232.083,305.229 231.953,298.146 231.953 L 288.363 231.953 288.363 191.913 C 288.363 144.663,289.240 150.296,281.883 150.296 L 276.980 150.296 270.739 153.505 " stroke="none" fill="#fafafa" fill-rule="evenodd"></path><path id="path1" d="M23.851 24.556 C 23.748 24.827,23.709 101.736,23.765 195.464 L 23.866 365.878 199.211 365.878 L 374.556 365.878 374.556 195.069 L 374.556 24.260 199.297 24.161 C 59.297 24.082,24.001 24.162,23.851 24.556 M362.427 194.970 L 362.327 353.649 199.211 353.649 L 36.095 353.649 35.994 195.464 C 35.938 108.462,35.977 37.056,36.080 36.785 C 36.229 36.392,69.256 36.292,199.396 36.292 L 362.526 36.292 362.427 194.970 M48.309 49.014 C 48.206 49.285,48.167 115.187,48.223 195.464 L 48.323 341.420 121.278 341.520 C 179.381 341.599,194.296 341.519,194.546 341.125 C 194.908 340.555,194.994 50.087,194.632 49.145 C 194.309 48.303,48.628 48.173,48.309 49.014 M204.127 49.014 C 204.024 49.285,203.986 115.187,204.041 195.464 L 204.142 341.420 277.120 341.420 L 350.099 341.420 350.198 194.970 L 350.297 48.521 277.306 48.521 C 219.276 48.521,204.276 48.622,204.127 49.014 M127.466 150.144 C 140.822 153.068,148.339 162.686,148.314 176.819 C 148.288 191.498,144.701 196.603,112.297 228.079 C 110.805 229.528,109.701 230.904,109.845 231.136 C 110.025 231.427,116.616 231.558,131.112 231.558 C 148.638 231.558,152.244 231.651,152.883 232.118 C 153.911 232.871,154.065 243.159,153.057 243.796 C 152.118 244.389,92.193 244.304,91.598 243.708 C 91.277 243.387,91.124 241.543,91.124 237.990 L 91.124 232.744 106.764 217.260 C 132.325 191.953,134.122 189.382,134.122 178.112 C 134.122 160.068,116.826 155.181,101.239 168.821 C 98.515 171.205,98.764 171.297,94.905 166.488 C 91.267 161.953,91.271 162.350,94.829 159.247 C 104.368 150.928,116.100 147.655,127.466 150.144 M287.574 151.085 C 288.353 151.863,288.363 152.400,288.363 191.913 L 288.363 231.953 298.146 231.953 C 305.229 231.953,308.060 232.083,308.402 232.426 C 309.190 233.214,309.054 243.634,308.252 243.942 C 306.963 244.437,250.679 244.210,250.178 243.708 C 249.509 243.040,249.526 233.526,250.197 232.623 C 250.636 232.031,251.925 231.947,261.933 231.857 L 273.176 231.755 273.276 198.915 C 273.368 169.250,273.317 166.075,272.756 166.075 C 272.201 166.075,254.539 175.498,253.375 176.415 C 251.969 177.522,251.135 176.627,249.014 171.737 C 246.518 165.981,246.483 166.117,251.037 163.834 C 253.016 162.841,256.854 160.833,259.566 159.372 C 262.278 157.910,267.306 155.270,270.739 153.505 L 276.980 150.296 281.883 150.296 C 286.259 150.296,286.870 150.381,287.574 151.085 " stroke="none" fill="#000000" fill-rule="evenodd"></path></g></svg>