<svg id="svg" version="1.1" xmlns="http://www.w3.org/2000/svg" xmlns:xlink="http://www.w3.org/1999/xlink" width="400" height="356.8215892053973" viewBox="0, 0, 400,356.8215892053973"><g id="svgg"><path id="path0" d="M0.000 178.412 L 0.000 356.824 200.000 356.824 L 400.000 356.824 400.000 178.412 L 400.000 0.000 200.000 0.000 L 0.000 0.000 0.000 178.412 M188.225 138.269 L 188.225 247.458 108.564 247.548 L 28.903 247.638 28.903 138.269 L 28.903 28.901 108.564 28.991 L 188.225 29.081 188.225 138.269 M370.562 138.269 L 370.562 247.458 290.812 247.458 L 211.062 247.458 210.970 138.626 C 210.920 78.769,210.955 29.594,211.049 29.348 C 211.184 28.992,227.340 28.919,290.890 28.991 L 370.562 29.081 370.562 138.269 M75.554 278.051 C 78.941 281.435,81.713 284.366,81.713 284.566 C 81.713 284.766,78.020 288.621,73.506 293.131 C 68.992 297.642,65.299 301.454,65.299 301.603 C 65.299 301.752,133.831 301.873,217.591 301.873 C 335.565 301.873,369.981 301.970,370.312 302.302 C 370.765 302.754,370.957 318.734,370.524 319.864 C 370.327 320.377,356.555 320.428,218.003 320.428 C 106.530 320.428,65.632 320.535,65.452 320.825 C 65.308 321.058,68.622 324.640,73.460 329.481 C 77.999 334.023,81.713 337.901,81.713 338.098 C 81.713 338.959,69.319 350.837,68.646 350.620 C 68.277 350.501,59.563 341.987,49.282 331.700 C 30.779 313.187,30.588 312.981,30.488 311.449 L 30.387 309.902 49.358 290.901 C 59.792 280.450,68.569 271.900,68.862 271.900 C 69.155 271.900,72.166 274.668,75.554 278.051 " stroke="none" fill="#fbfbfb" fill-rule="evenodd"></path><path id="path1" d="M28.903 138.269 L 28.903 247.638 108.564 247.548 L 188.225 247.458 188.225 138.269 L 188.225 29.081 108.564 28.991 L 28.903 28.901 28.903 138.269 M211.049 29.348 C 210.955 29.594,210.920 78.769,210.970 138.626 L 211.062 247.458 290.812 247.458 L 370.562 247.458 370.562 138.269 L 370.562 29.081 290.890 28.991 C 227.340 28.919,211.184 28.992,211.049 29.348 M49.358 290.901 L 30.387 309.902 30.488 311.449 C 30.588 312.981,30.779 313.187,49.282 331.700 C 59.563 341.987,68.277 350.501,68.646 350.620 C 69.319 350.837,81.713 338.959,81.713 338.098 C 81.713 337.901,77.999 334.023,73.460 329.481 C 68.622 324.640,65.308 321.058,65.452 320.825 C 65.632 320.535,106.530 320.428,218.003 320.428 C 356.555 320.428,370.327 320.377,370.524 319.864 C 370.957 318.734,370.765 302.754,370.312 302.302 C 369.981 301.970,335.565 301.873,217.591 301.873 C 133.831 301.873,65.299 301.752,65.299 301.603 C 65.299 301.454,68.992 297.642,73.506 293.131 C 78.020 288.621,81.713 284.766,81.713 284.566 C 81.713 283.986,69.451 271.900,68.862 271.900 C 68.569 271.900,59.792 280.450,49.358 290.901 " stroke="none" fill="#000000" fill-rule="evenodd"></path></g></svg>