<svg id="svg" version="1.1" xmlns="http://www.w3.org/2000/svg" xmlns:xlink="http://www.w3.org/1999/xlink" width="400" height="373.01349325337327" viewBox="0, 0, 400,373.01349325337327"><g id="svgg"><path id="path0" d="M0.000 186.567 L 0.000 373.134 200.000 373.134 L 400.000 373.134 400.000 186.567 L 400.000 0.000 200.000 0.000 L 0.000 0.000 0.000 186.567 M188.761 29.237 C 189.070 29.609,189.156 58.454,189.086 138.658 L 188.993 247.575 109.328 247.575 L 29.664 247.575 29.569 138.619 C 29.516 78.694,29.553 29.454,29.650 29.198 C 29.924 28.477,188.163 28.516,188.761 29.237 M371.082 138.246 L 371.082 247.575 291.418 247.575 L 211.754 247.575 211.658 138.619 C 211.606 78.694,211.642 29.454,211.740 29.197 C 211.882 28.824,228.030 28.749,291.500 28.824 L 371.082 28.918 371.082 138.246 M345.985 290.582 L 364.925 309.523 364.925 311.199 L 364.925 312.876 345.710 332.088 L 326.495 351.300 320.151 344.964 C 316.661 341.479,313.806 338.459,313.806 338.253 C 313.806 338.048,317.522 334.161,322.063 329.616 C 326.899 324.776,330.214 321.181,330.063 320.938 C 329.876 320.634,288.913 320.522,177.403 320.522 L 25.000 320.522 25.000 311.424 L 25.000 302.326 25.840 302.101 C 26.301 301.977,94.977 301.874,178.451 301.871 C 261.926 301.868,330.224 301.738,330.224 301.583 C 330.224 301.427,326.530 297.608,322.015 293.097 C 317.500 288.586,313.806 284.727,313.806 284.522 C 313.806 284.035,326.184 271.642,326.671 271.642 C 326.876 271.642,335.567 280.165,345.985 290.582 " stroke="none" fill="#fbfbfb" fill-rule="evenodd"></path><path id="path1" d="M29.650 29.198 C 29.553 29.454,29.516 78.694,29.569 138.619 L 29.664 247.575 109.328 247.575 L 188.993 247.575 189.086 138.658 C 189.156 58.454,189.070 29.609,188.761 29.237 C 188.163 28.516,29.924 28.477,29.650 29.198 M211.740 29.197 C 211.642 29.454,211.606 78.694,211.658 138.619 L 211.754 247.575 291.418 247.575 L 371.082 247.575 371.082 138.246 L 371.082 28.918 291.500 28.824 C 228.030 28.749,211.882 28.824,211.740 29.197 M320.052 277.896 C 316.617 281.335,313.806 284.317,313.806 284.522 C 313.806 284.727,317.500 288.586,322.015 293.097 C 326.530 297.608,330.224 301.427,330.224 301.583 C 330.224 301.738,261.926 301.868,178.451 301.871 C 94.977 301.874,26.301 301.977,25.840 302.101 L 25.000 302.326 25.000 311.424 L 25.000 320.522 177.403 320.522 C 288.913 320.522,329.876 320.634,330.063 320.938 C 330.214 321.181,326.899 324.776,322.063 329.616 C 317.522 334.161,313.806 338.048,313.806 338.253 C 313.806 338.459,316.661 341.479,320.151 344.964 L 326.495 351.300 345.710 332.088 L 364.925 312.876 364.925 311.199 L 364.925 309.523 345.985 290.582 C 335.567 280.165,326.876 271.642,326.671 271.642 C 326.466 271.642,323.487 274.456,320.052 277.896 " stroke="none" fill="#000000" fill-rule="evenodd"></path></g></svg>