<svg id="svg" version="1.1" xmlns="http://www.w3.org/2000/svg" xmlns:xlink="http://www.w3.org/1999/xlink" width="400" height="407.05128205128204" viewBox="0, 0, 400,407.05128205128204"><g id="svgg"><path id="path0" d="M0.000 203.400 L 0.000 406.800 200.000 406.800 L 400.000 406.800 400.000 203.400 L 400.000 0.000 200.000 0.000 L 0.000 0.000 0.000 203.400 M70.167 15.843 C 70.743 16.064,70.800 30.816,70.800 179.043 C 70.800 268.669,70.937 342.000,71.103 342.000 C 71.270 342.000,75.364 338.040,80.200 333.200 C 85.036 328.360,89.265 324.401,89.597 324.402 C 90.343 324.405,103.200 337.299,103.200 338.045 C 103.200 338.341,94.135 347.654,83.056 358.739 C 62.931 378.876,62.910 378.895,61.122 379.014 L 59.331 379.134 38.786 358.586 L 18.241 338.038 19.021 337.159 C 20.648 335.323,31.661 324.593,32.062 324.453 C 32.293 324.372,36.559 328.332,41.541 333.253 L 50.600 342.200 50.700 179.440 C 50.774 59.923,50.920 16.537,51.249 16.140 C 51.717 15.577,68.775 15.308,70.167 15.843 M362.301 20.730 C 362.700 20.984,362.781 38.307,362.701 106.024 L 362.600 191.000 245.800 191.000 L 129.000 191.000 128.899 106.024 C 128.819 38.307,128.900 20.984,129.299 20.730 C 129.954 20.314,361.646 20.314,362.301 20.730 M362.600 300.400 L 362.600 385.400 245.800 385.400 L 129.000 385.400 128.897 300.800 C 128.841 254.270,128.881 215.975,128.985 215.699 C 129.137 215.300,152.728 215.219,245.888 215.299 L 362.600 215.400 362.600 300.400 " stroke="none" fill="#fbfbfb" fill-rule="evenodd"></path><path id="path1" d="M51.249 16.140 C 50.920 16.537,50.774 59.923,50.700 179.440 L 50.600 342.200 41.541 333.253 C 36.559 328.332,32.293 324.372,32.062 324.453 C 31.661 324.593,20.648 335.323,19.021 337.159 L 18.241 338.038 38.786 358.586 L 59.331 379.134 61.122 379.014 C 62.910 378.895,62.931 378.876,83.056 358.739 C 94.135 347.654,103.200 338.341,103.200 338.045 C 103.200 337.299,90.343 324.405,89.597 324.402 C 89.265 324.401,85.036 328.360,80.200 333.200 C 75.364 338.040,71.270 342.000,71.103 342.000 C 70.937 342.000,70.800 268.669,70.800 179.043 C 70.800 30.816,70.743 16.064,70.167 15.843 C 68.775 15.308,51.717 15.577,51.249 16.140 M129.299 20.730 C 128.900 20.984,128.819 38.307,128.899 106.024 L 129.000 191.000 245.800 191.000 L 362.600 191.000 362.701 106.024 C 362.781 38.307,362.700 20.984,362.301 20.730 C 361.646 20.314,129.954 20.314,129.299 20.730 M128.985 215.699 C 128.881 215.975,128.841 254.270,128.897 300.800 L 129.000 385.400 245.800 385.400 L 362.600 385.400 362.600 300.400 L 362.600 215.400 245.888 215.299 C 152.728 215.219,129.137 215.300,128.985 215.699 " stroke="none" fill="#000000" fill-rule="evenodd"></path></g></svg>