<svg id="svg" version="1.1" xmlns="http://www.w3.org/2000/svg" xmlns:xlink="http://www.w3.org/1999/xlink" width="400" height="408.36012861736333" viewBox="0, 0, 400,408.36012861736333"><g id="svgg"><path id="path0" d="M0.000 204.000 L 0.000 408.000 200.000 408.000 L 400.000 408.000 400.000 204.000 L 400.000 0.000 200.000 0.000 L 0.000 0.000 0.000 204.000 M362.720 21.280 C 363.474 22.034,363.412 190.526,362.658 191.152 C 362.259 191.483,331.389 191.575,245.558 191.501 L 129.000 191.400 128.897 106.600 C 128.841 59.960,128.880 21.575,128.985 21.300 C 129.258 20.583,362.003 20.563,362.720 21.280 M82.299 42.899 C 93.354 53.953,102.400 63.275,102.400 63.614 C 102.400 63.954,99.424 67.187,95.788 70.800 L 89.175 77.369 79.978 68.184 C 72.640 60.858,70.702 59.121,70.396 59.600 C 70.153 59.981,70.010 119.802,70.006 223.257 C 70.001 371.571,69.943 386.336,69.367 386.557 C 68.542 386.874,52.258 386.874,51.433 386.557 C 50.857 386.336,50.800 371.551,50.800 222.981 C 50.800 103.474,50.681 59.573,50.355 59.372 C 50.094 59.211,46.240 62.764,41.052 67.948 C 36.180 72.817,31.927 76.800,31.601 76.800 C 30.821 76.800,18.400 64.386,18.400 63.606 C 18.400 63.274,27.444 53.957,38.499 42.901 L 58.597 22.800 60.397 22.800 L 62.197 22.800 82.299 42.899 M362.957 216.633 C 363.594 218.292,363.213 385.530,362.571 386.171 C 361.930 386.813,131.095 387.195,129.433 386.557 C 128.859 386.337,128.800 378.440,128.800 301.157 L 128.800 216.000 245.757 216.000 C 352.038 216.000,362.737 216.058,362.957 216.633 " stroke="none" fill="#fbfbfb" fill-rule="evenodd"></path><path id="path1" d="M128.985 21.300 C 128.880 21.575,128.841 59.960,128.897 106.600 L 129.000 191.400 245.558 191.501 C 331.389 191.575,362.259 191.483,362.658 191.152 C 363.412 190.526,363.474 22.034,362.720 21.280 C 362.003 20.563,129.258 20.583,128.985 21.300 M38.499 42.901 C 27.444 53.957,18.400 63.274,18.400 63.606 C 18.400 64.386,30.821 76.800,31.601 76.800 C 31.927 76.800,36.180 72.817,41.052 67.948 C 46.240 62.764,50.094 59.211,50.355 59.372 C 50.681 59.573,50.800 103.474,50.800 222.981 C 50.800 371.551,50.857 386.336,51.433 386.557 C 52.258 386.874,68.542 386.874,69.367 386.557 C 69.943 386.336,70.001 371.571,70.006 223.257 C 70.010 119.802,70.153 59.981,70.396 59.600 C 70.702 59.121,72.640 60.858,79.978 68.184 L 89.175 77.369 95.788 70.800 C 99.424 67.187,102.400 63.954,102.400 63.614 C 102.400 63.275,93.354 53.953,82.299 42.899 L 62.197 22.800 60.397 22.800 L 58.597 22.800 38.499 42.901 M128.800 301.157 C 128.800 378.440,128.859 386.337,129.433 386.557 C 131.095 387.195,361.930 386.813,362.571 386.171 C 363.213 385.530,363.594 218.292,362.957 216.633 C 362.737 216.058,352.038 216.000,245.757 216.000 L 128.800 216.000 128.800 301.157 " stroke="none" fill="#000000" fill-rule="evenodd"></path></g></svg>