<svg id="svg" version="1.1" xmlns="http://www.w3.org/2000/svg" xmlns:xlink="http://www.w3.org/1999/xlink" width="400" height="393.81761978361664" viewBox="0, 0, 400,393.81761978361664"><g id="svgg"><path id="path0" d="M50.636 40.689 C 50.516 41.177,50.468 45.833,50.529 51.034 L 50.640 60.493 196.059 60.493 L 341.478 60.493 341.478 50.246 L 341.478 40.000 196.165 39.901 L 50.853 39.802 50.636 40.689 M72.752 66.436 C 72.391 67.376,72.476 189.678,72.838 190.247 C 73.087 190.640,98.312 190.720,197.659 190.641 L 322.167 190.542 322.275 129.064 C 322.335 95.251,322.287 67.187,322.169 66.700 L 321.955 65.813 197.473 65.813 C 84.325 65.813,72.969 65.870,72.752 66.436 M72.752 199.243 C 72.254 200.542,72.484 322.572,72.985 323.074 C 73.729 323.818,321.306 323.757,321.923 323.012 C 322.249 322.620,322.340 306.018,322.267 260.648 L 322.167 198.818 197.579 198.719 C 84.225 198.628,72.970 198.676,72.752 199.243 M50.706 328.933 C 50.152 329.487,50.409 348.644,50.977 349.115 C 51.370 349.441,89.641 349.532,196.494 349.459 L 341.478 349.360 341.583 339.015 L 341.688 328.670 196.328 328.670 C 116.381 328.670,50.851 328.788,50.706 328.933 " stroke="none" fill="#000000" fill-rule="evenodd"></path><path id="path1" d="M0.000 197.044 L 0.000 394.089 200.000 394.089 L 400.000 394.089 400.000 197.044 L 400.000 0.000 200.000 0.000 L 0.000 0.000 0.000 197.044 M341.478 50.246 L 341.478 60.493 196.059 60.493 L 50.640 60.493 50.529 51.034 C 50.468 45.833,50.516 41.177,50.636 40.689 L 50.853 39.802 196.165 39.901 L 341.478 40.000 341.478 50.246 M322.169 66.700 C 322.287 67.187,322.335 95.251,322.275 129.064 L 322.167 190.542 197.659 190.641 C 98.312 190.720,73.087 190.640,72.838 190.247 C 72.476 189.678,72.391 67.376,72.752 66.436 C 72.969 65.870,84.325 65.813,197.473 65.813 L 321.955 65.813 322.169 66.700 M322.267 260.648 C 322.340 306.018,322.249 322.620,321.923 323.012 C 321.306 323.757,73.729 323.818,72.985 323.074 C 72.484 322.572,72.254 200.542,72.752 199.243 C 72.970 198.676,84.225 198.628,197.579 198.719 L 322.167 198.818 322.267 260.648 M341.583 339.015 L 341.478 349.360 196.494 349.459 C 89.641 349.532,51.370 349.441,50.977 349.115 C 50.409 348.644,50.152 329.487,50.706 328.933 C 50.851 328.788,116.381 328.670,196.328 328.670 L 341.688 328.670 341.583 339.015 " stroke="none" fill="#fcfcfc" fill-rule="evenodd"></path></g></svg>