<svg id="svg" version="1.1" xmlns="http://www.w3.org/2000/svg" xmlns:xlink="http://www.w3.org/1999/xlink" width="400" height="364.8054145516075" viewBox="0, 0, 400,364.8054145516075"><g id="svgg"><path id="path0" d="M0.000 182.482 L 0.000 364.964 200.000 364.964 L 400.000 364.964 400.000 182.482 L 400.000 0.000 200.000 0.000 L 0.000 0.000 0.000 182.482 M353.199 23.297 C 353.558 23.525,353.639 26.054,353.564 34.696 L 353.467 45.803 194.343 45.803 L 35.219 45.803 35.122 34.696 C 35.047 26.054,35.128 23.525,35.487 23.297 C 36.091 22.914,352.595 22.914,353.199 23.297 M332.104 52.166 C 332.736 53.346,332.621 187.386,331.988 187.912 C 331.623 188.214,295.706 188.298,195.400 188.230 L 59.307 188.139 59.214 120.095 C 59.141 65.901,59.215 51.992,59.579 51.761 C 60.752 51.017,331.704 51.419,332.104 52.166 M331.908 197.289 C 332.683 198.063,332.798 331.912,332.026 332.962 C 331.598 333.542,323.104 333.575,195.438 333.487 L 59.307 333.394 59.214 265.264 C 59.127 200.602,59.155 197.126,59.762 196.967 C 61.856 196.420,331.358 196.739,331.908 197.289 " stroke="none" fill="#fbfbfb" fill-rule="evenodd"></path><path id="path1" d="M35.487 23.297 C 35.128 23.525,35.047 26.054,35.122 34.696 L 35.219 45.803 194.343 45.803 L 353.467 45.803 353.564 34.696 C 353.639 26.054,353.558 23.525,353.199 23.297 C 352.595 22.914,36.091 22.914,35.487 23.297 M59.579 51.761 C 59.215 51.992,59.141 65.901,59.214 120.095 L 59.307 188.139 195.400 188.230 C 295.706 188.298,331.623 188.214,331.988 187.912 C 332.621 187.386,332.736 53.346,332.104 52.166 C 331.704 51.419,60.752 51.017,59.579 51.761 M59.762 196.967 C 59.155 197.126,59.127 200.602,59.214 265.264 L 59.307 333.394 195.438 333.487 C 323.104 333.575,331.598 333.542,332.026 332.962 C 332.798 331.912,332.683 198.063,331.908 197.289 C 331.358 196.739,61.856 196.420,59.762 196.967 " stroke="none" fill="#000000" fill-rule="evenodd"></path></g></svg>