<svg id="svg" version="1.1" xmlns="http://www.w3.org/2000/svg" xmlns:xlink="http://www.w3.org/1999/xlink" width="400" height="367.97900262467186" viewBox="0, 0, 400,367.97900262467186"><g id="svgg"><path id="path0" d="M67.587 48.451 C 66.795 49.243,67.343 65.120,68.169 65.319 C 68.625 65.428,124.057 65.473,191.352 65.418 L 313.707 65.317 313.707 56.854 L 313.707 48.390 190.770 48.298 C 123.155 48.247,67.722 48.316,67.587 48.451 M87.383 72.952 C 87.286 73.206,87.250 95.685,87.302 122.907 L 87.397 172.401 192.824 172.401 L 298.252 172.401 298.252 122.539 L 298.252 72.677 192.905 72.584 C 108.820 72.511,87.523 72.585,87.383 72.952 M68.611 177.837 C 68.511 178.095,68.475 181.945,68.530 186.393 L 68.629 194.480 191.720 194.480 L 314.811 194.480 314.811 186.017 L 314.811 177.553 191.801 177.460 C 92.372 177.386,68.756 177.458,68.611 177.837 M87.458 199.693 C 87.323 199.828,87.213 220.276,87.213 245.133 L 87.213 290.326 88.040 290.526 C 88.496 290.636,135.980 290.680,193.560 290.625 L 298.252 290.524 298.252 245.078 L 298.252 199.632 192.978 199.539 C 135.078 199.488,87.594 199.557,87.458 199.693 M73.107 300.153 C 72.972 300.288,72.861 304.097,72.861 308.617 L 72.861 316.835 196.143 316.835 L 319.425 316.835 319.326 308.464 L 319.227 300.092 196.290 299.999 C 128.675 299.949,73.242 300.018,73.107 300.153 " stroke="none" fill="#000000" fill-rule="evenodd"></path><path id="path1" d="M67.433 47.850 C 66.573 48.195,66.097 64.131,66.909 65.410 C 67.142 65.777,92.168 65.852,190.822 65.778 L 314.443 65.685 314.542 57.038 C 314.632 49.234,314.580 48.346,314.012 47.930 C 313.245 47.370,68.827 47.290,67.433 47.850 M313.707 56.854 L 313.707 65.317 191.352 65.418 C 124.057 65.473,68.625 65.428,68.169 65.319 C 67.343 65.120,66.795 49.243,67.587 48.451 C 67.722 48.316,123.155 48.247,190.770 48.298 L 313.707 48.390 313.707 56.854 M86.647 72.584 C 86.550 72.838,86.514 95.483,86.566 122.907 L 86.661 172.769 192.824 172.769 L 298.988 172.769 298.988 122.539 L 298.988 72.309 192.905 72.216 C 108.232 72.143,86.787 72.217,86.647 72.584 M298.252 122.539 L 298.252 172.401 192.824 172.401 L 87.397 172.401 87.302 122.907 C 87.250 95.685,87.286 73.206,87.383 72.952 C 87.523 72.585,108.820 72.511,192.905 72.584 L 298.252 72.677 298.252 122.539 M68.353 177.030 C 67.659 177.435,67.347 193.524,68.013 194.573 C 68.246 194.940,93.272 195.015,191.926 194.941 L 315.547 194.848 315.646 186.201 C 315.736 178.397,315.684 177.508,315.116 177.093 C 314.296 176.493,69.382 176.431,68.353 177.030 M314.811 186.017 L 314.811 194.480 191.720 194.480 L 68.629 194.480 68.530 186.393 C 68.475 181.945,68.511 178.095,68.611 177.837 C 68.756 177.458,92.372 177.386,191.801 177.460 L 314.811 177.553 314.811 186.017 M87.121 199.110 C 86.427 199.513,86.092 289.534,86.780 290.617 C 87.014 290.984,108.507 291.059,193.030 290.985 L 298.988 290.892 299.081 245.029 L 299.175 199.167 298.345 198.944 C 296.833 198.539,87.820 198.702,87.121 199.110 M298.252 245.078 L 298.252 290.524 193.560 290.625 C 135.980 290.680,88.496 290.636,88.040 290.526 L 87.213 290.326 87.213 245.133 C 87.213 220.276,87.323 199.828,87.458 199.693 C 87.594 199.557,135.078 199.488,192.978 199.539 L 298.252 199.632 298.252 245.078 M72.371 299.785 C 72.021 300.135,72.076 316.556,72.429 317.112 C 72.662 317.479,97.688 317.554,196.342 317.480 L 319.963 317.387 319.963 308.556 L 319.963 299.724 196.290 299.631 C 128.270 299.581,72.506 299.650,72.371 299.785 M319.326 308.464 L 319.425 316.835 196.143 316.835 L 72.861 316.835 72.861 308.617 C 72.861 304.097,72.972 300.288,73.107 300.153 C 73.242 300.018,128.675 299.949,196.290 299.999 L 319.227 300.092 319.326 308.464 " stroke="none" fill="#000000" fill-rule="evenodd"></path><path id="path2" d="M0.000 183.993 L 0.000 367.985 200.000 367.985 L 400.000 367.985 400.000 183.993 L 400.000 0.000 200.000 0.000 L 0.000 0.000 0.000 183.993 M314.012 47.930 C 314.580 48.346,314.632 49.234,314.542 57.038 L 314.443 65.685 190.822 65.778 C 92.168 65.852,67.142 65.777,66.909 65.410 C 66.097 64.131,66.573 48.195,67.433 47.850 C 68.827 47.290,313.245 47.370,314.012 47.930 M298.988 122.539 L 298.988 172.769 192.824 172.769 L 86.661 172.769 86.566 122.907 C 86.514 95.483,86.550 72.838,86.647 72.584 C 86.787 72.217,108.232 72.143,192.905 72.216 L 298.988 72.309 298.988 122.539 M315.116 177.093 C 315.684 177.508,315.736 178.397,315.646 186.201 L 315.547 194.848 191.926 194.941 C 93.272 195.015,68.246 194.940,68.013 194.573 C 67.347 193.524,67.659 177.435,68.353 177.030 C 69.382 176.431,314.296 176.493,315.116 177.093 M298.345 198.944 L 299.175 199.167 299.081 245.029 L 298.988 290.892 193.030 290.985 C 108.507 291.059,87.014 290.984,86.780 290.617 C 86.092 289.534,86.427 199.513,87.121 199.110 C 87.820 198.702,296.833 198.539,298.345 198.944 M319.963 308.556 L 319.963 317.387 196.342 317.480 C 97.688 317.554,72.662 317.479,72.429 317.112 C 72.076 316.556,72.021 300.135,72.371 299.785 C 72.506 299.650,128.270 299.581,196.290 299.631 L 319.963 299.724 319.963 308.556 " stroke="none" fill="#fcfcfc" fill-rule="evenodd"></path></g></svg>