<svg id="svg" version="1.1" xmlns="http://www.w3.org/2000/svg" xmlns:xlink="http://www.w3.org/1999/xlink" width="400" height="394.57259158751697" viewBox="0, 0, 400,394.57259158751697"><g id="svgg"><path id="path0" d="M69.760 60.677 C 69.127 61.310,69.470 78.484,70.121 78.734 C 71.071 79.098,323.914 79.008,324.489 78.643 C 324.876 78.398,324.966 76.290,324.884 69.468 L 324.778 60.612 197.401 60.513 C 127.344 60.458,69.906 60.532,69.760 60.677 M89.108 83.580 C 88.963 83.725,88.845 105.048,88.845 130.965 L 88.845 178.086 198.322 177.987 L 307.799 177.887 307.907 131.491 C 307.966 105.972,307.919 84.694,307.801 84.205 L 307.586 83.317 198.479 83.317 C 138.470 83.317,89.253 83.435,89.108 83.580 M89.027 215.300 C 88.924 215.572,88.885 236.851,88.941 262.586 L 89.042 309.378 198.421 309.378 L 307.799 309.378 307.799 262.192 L 307.799 215.005 198.507 214.906 C 111.281 214.826,89.178 214.906,89.027 215.300 M69.588 323.297 L 69.694 332.280 197.236 332.280 L 324.778 332.280 324.884 323.297 L 324.990 314.314 197.236 314.314 L 69.482 314.314 69.588 323.297 " stroke="none" fill="#000000" fill-rule="evenodd"></path><path id="path1" d="M0.000 197.433 L 0.000 394.867 200.000 394.867 L 400.000 394.867 400.000 197.433 L 400.000 0.000 200.000 0.000 L 0.000 0.000 0.000 197.433 M324.884 69.468 C 324.966 76.290,324.876 78.398,324.489 78.643 C 323.914 79.008,71.071 79.098,70.121 78.734 C 69.470 78.484,69.127 61.310,69.760 60.677 C 69.906 60.532,127.344 60.458,197.401 60.513 L 324.778 60.612 324.884 69.468 M307.801 84.205 C 307.919 84.694,307.966 105.972,307.907 131.491 L 307.799 177.887 198.322 177.987 L 88.845 178.086 88.845 130.965 C 88.845 105.048,88.963 83.725,89.108 83.580 C 89.253 83.435,138.470 83.317,198.479 83.317 L 307.586 83.317 307.801 84.205 M307.799 262.192 L 307.799 309.378 198.421 309.378 L 89.042 309.378 88.941 262.586 C 88.885 236.851,88.924 215.572,89.027 215.300 C 89.178 214.906,111.281 214.826,198.507 214.906 L 307.799 215.005 307.799 262.192 M324.884 323.297 L 324.778 332.280 197.236 332.280 L 69.694 332.280 69.588 323.297 L 69.482 314.314 197.236 314.314 L 324.990 314.314 324.884 323.297 " stroke="none" fill="#fcfcfc" fill-rule="evenodd"></path></g></svg>