<svg id="svg" version="1.1" xmlns="http://www.w3.org/2000/svg" xmlns:xlink="http://www.w3.org/1999/xlink" width="400" height="397.35099337748346" viewBox="0, 0, 400,397.35099337748346"><g id="svgg"><path id="path0" d="M57.838 51.789 C 57.734 52.062,57.695 82.078,57.751 118.489 L 57.853 184.692 191.451 184.692 L 325.050 184.692 325.050 118.091 L 325.050 51.491 191.538 51.391 C 84.938 51.311,57.989 51.391,57.838 51.789 M58.131 193.718 C 57.437 194.412,57.437 326.066,58.131 326.759 C 58.826 327.455,324.076 327.455,324.771 326.759 C 325.465 326.066,325.465 194.412,324.771 193.718 C 324.076 193.022,58.826 193.022,58.131 193.718 M34.288 343.837 L 34.394 354.871 190.060 354.871 L 345.726 354.871 345.831 343.837 L 345.937 332.803 190.060 332.803 L 34.182 332.803 34.288 343.837 " stroke="none" fill="#000000" fill-rule="evenodd"></path><path id="path1" d="M0.000 198.807 L 0.000 397.614 200.000 397.614 L 400.000 397.614 400.000 198.807 L 400.000 0.000 200.000 0.000 L 0.000 0.000 0.000 198.807 M325.050 118.091 L 325.050 184.692 191.451 184.692 L 57.853 184.692 57.751 118.489 C 57.695 82.078,57.734 52.062,57.838 51.789 C 57.989 51.391,84.938 51.311,191.538 51.391 L 325.050 51.491 325.050 118.091 M324.771 193.718 C 325.465 194.412,325.465 326.066,324.771 326.759 C 324.076 327.455,58.826 327.455,58.131 326.759 C 57.437 326.066,57.437 194.412,58.131 193.718 C 58.826 193.022,324.076 193.022,324.771 193.718 M345.831 343.837 L 345.726 354.871 190.060 354.871 L 34.394 354.871 34.288 343.837 L 34.182 332.803 190.060 332.803 L 345.937 332.803 345.831 343.837 " stroke="none" fill="#fcfcfc" fill-rule="evenodd"></path></g></svg>