<svg id="svg" version="1.1" xmlns="http://www.w3.org/2000/svg" xmlns:xlink="http://www.w3.org/1999/xlink" width="400" height="401.2403100775194" viewBox="0, 0, 400,401.2403100775194"><g id="svgg"><path id="path0" d="M51.380 48.908 C 51.273 49.187,51.234 53.822,51.293 59.208 L 51.400 69.000 61.967 69.107 C 68.945 69.177,72.715 69.364,73.067 69.656 C 73.507 70.020,73.600 80.733,73.600 130.806 C 73.600 185.795,73.660 191.537,74.233 191.757 C 75.692 192.317,323.083 192.023,323.550 191.461 C 323.875 191.069,324.025 174.260,324.099 130.161 L 324.200 69.400 333.581 69.292 C 340.474 69.213,343.045 69.054,343.275 68.692 C 343.640 68.117,343.716 49.968,343.357 49.033 C 343.027 48.172,51.710 48.047,51.380 48.908 M73.867 199.867 C 73.720 200.013,73.600 227.441,73.600 260.818 C 73.600 310.871,73.507 321.580,73.067 321.944 C 72.715 322.236,68.945 322.423,61.967 322.493 L 51.400 322.600 51.293 332.350 C 51.217 339.207,51.321 342.264,51.642 342.650 C 52.274 343.412,342.358 343.482,343.120 342.720 C 343.627 342.213,343.843 324.299,343.357 323.033 C 343.146 322.482,341.959 322.400,334.190 322.400 C 329.281 322.400,324.981 322.291,324.633 322.157 C 324.060 321.937,324.000 316.198,324.000 261.237 C 324.000 214.577,323.889 200.449,323.520 200.080 C 322.996 199.556,74.390 199.343,73.867 199.867 " stroke="none" fill="#000000" fill-rule="evenodd"></path><path id="path1" d="M0.000 200.600 L 0.000 401.200 200.000 401.200 L 400.000 401.200 400.000 200.600 L 400.000 0.000 200.000 0.000 L 0.000 0.000 0.000 200.600 M343.357 49.033 C 343.716 49.968,343.640 68.117,343.275 68.692 C 343.045 69.054,340.474 69.213,333.581 69.292 L 324.200 69.400 324.099 130.161 C 324.025 174.260,323.875 191.069,323.550 191.461 C 323.083 192.023,75.692 192.317,74.233 191.757 C 73.660 191.537,73.600 185.795,73.600 130.806 C 73.600 80.733,73.507 70.020,73.067 69.656 C 72.715 69.364,68.945 69.177,61.967 69.107 L 51.400 69.000 51.293 59.208 C 51.234 53.822,51.273 49.187,51.380 48.908 C 51.710 48.047,343.027 48.172,343.357 49.033 M323.520 200.080 C 323.889 200.449,324.000 214.577,324.000 261.237 C 324.000 316.198,324.060 321.937,324.633 322.157 C 324.981 322.291,329.281 322.400,334.190 322.400 C 341.959 322.400,343.146 322.482,343.357 323.033 C 343.843 324.299,343.627 342.213,343.120 342.720 C 342.358 343.482,52.274 343.412,51.642 342.650 C 51.321 342.264,51.217 339.207,51.293 332.350 L 51.400 322.600 61.967 322.493 C 68.945 322.423,72.715 322.236,73.067 321.944 C 73.507 321.580,73.600 310.871,73.600 260.818 C 73.600 227.441,73.720 200.013,73.867 199.867 C 74.390 199.343,322.996 199.556,323.520 200.080 " stroke="none" fill="#fcfcfc" fill-rule="evenodd"></path></g></svg>