<svg id="svg" version="1.1" xmlns="http://www.w3.org/2000/svg" xmlns:xlink="http://www.w3.org/1999/xlink" width="400" height="382.370820668693" viewBox="0, 0, 400,382.370820668693"><g id="svgg"><path id="path0" d="M74.060 65.264 C 73.508 65.816,73.769 180.373,74.323 180.833 C 74.704 181.150,107.007 181.238,196.981 181.167 L 319.120 181.071 319.120 123.136 L 319.120 65.201 196.718 65.105 C 129.397 65.052,74.201 65.123,74.060 65.264 M52.404 186.972 C 51.765 188.167,51.876 205.915,52.525 206.455 C 52.907 206.771,90.542 206.859,195.642 206.788 L 338.241 206.692 338.241 196.558 L 338.241 186.424 195.520 186.328 C 54.724 186.234,52.795 186.242,52.404 186.972 M74.060 212.109 C 73.315 212.854,73.794 317.367,74.545 317.769 C 75.435 318.245,318.086 318.324,318.835 317.848 C 319.216 317.606,319.295 306.742,319.217 264.795 L 319.120 212.046 196.718 211.950 C 129.397 211.897,74.201 211.968,74.060 212.109 " stroke="none" fill="#000000" fill-rule="evenodd"></path><path id="path1" d="M0.000 191.205 L 0.000 382.409 200.000 382.409 L 400.000 382.409 400.000 191.205 L 400.000 0.000 200.000 0.000 L 0.000 0.000 0.000 191.205 M319.120 123.136 L 319.120 181.071 196.981 181.167 C 107.007 181.238,74.704 181.150,74.323 180.833 C 73.769 180.373,73.508 65.816,74.060 65.264 C 74.201 65.123,129.397 65.052,196.718 65.105 L 319.120 65.201 319.120 123.136 M338.241 196.558 L 338.241 206.692 195.642 206.788 C 90.542 206.859,52.907 206.771,52.525 206.455 C 51.876 205.915,51.765 188.167,52.404 186.972 C 52.795 186.242,54.724 186.234,195.520 186.328 L 338.241 186.424 338.241 196.558 M319.217 264.795 C 319.295 306.742,319.216 317.606,318.835 317.848 C 318.086 318.324,75.435 318.245,74.545 317.769 C 73.794 317.367,73.315 212.854,74.060 212.109 C 74.201 211.968,129.397 211.897,196.718 211.950 L 319.120 212.046 319.217 264.795 " stroke="none" fill="#fcfcfc" fill-rule="evenodd"></path></g></svg>