<svg id="svg" version="1.1" xmlns="http://www.w3.org/2000/svg" xmlns:xlink="http://www.w3.org/1999/xlink" width="400" height="350.58139534883725" viewBox="0, 0, 400,350.58139534883725"><g id="svgg"><path id="path0" d="M0.000 175.439 L 0.000 350.877 200.000 350.877 L 400.000 350.877 400.000 175.439 L 400.000 0.000 200.000 0.000 L 0.000 0.000 0.000 175.439 M185.878 28.711 C 186.228 28.933,186.299 57.918,186.228 172.477 L 186.140 315.965 107.719 315.965 L 29.298 315.965 29.210 172.477 C 29.140 57.918,29.210 28.933,29.561 28.711 C 30.135 28.346,185.304 28.346,185.878 28.711 M365.602 29.100 C 366.163 30.148,366.105 315.158,365.544 315.719 C 364.704 316.559,209.235 316.303,208.784 315.462 C 208.536 314.997,208.421 269.840,208.421 172.281 C 208.421 74.721,208.536 29.564,208.784 29.100 C 209.142 28.432,210.391 28.421,287.193 28.421 C 363.995 28.421,365.244 28.432,365.602 29.100 " stroke="none" fill="#fbfbfb" fill-rule="evenodd"></path><path id="path1" d="M29.561 28.711 C 29.210 28.933,29.140 57.918,29.210 172.477 L 29.298 315.965 107.719 315.965 L 186.140 315.965 186.228 172.477 C 186.299 57.918,186.228 28.933,185.878 28.711 C 185.304 28.346,30.135 28.346,29.561 28.711 M208.784 29.100 C 208.536 29.564,208.421 74.721,208.421 172.281 C 208.421 269.840,208.536 314.997,208.784 315.462 C 209.235 316.303,364.704 316.559,365.544 315.719 C 366.105 315.158,366.163 30.148,365.602 29.100 C 365.244 28.432,363.995 28.421,287.193 28.421 C 210.391 28.421,209.142 28.432,208.784 29.100 " stroke="none" fill="#000000" fill-rule="evenodd"></path></g></svg>